<svg width="44" height="44" viewBox="0 0 44 44" fill="none" xmlns="http://www.w3.org/2000/svg">
<path fill-rule="evenodd" clip-rule="evenodd" d="M21.9919 1.1001C16.8017 1.10279 11.7817 2.94106 7.82946 6.28621C3.87727 9.63135 1.25061 14.2652 0.419166 19.3593C-0.412279 24.4533 0.605697 29.6753 3.29109 34.0916C5.97648 38.5078 10.1542 41.8303 15.0771 43.4649C16.1632 43.6665 16.5723 42.9934 16.5723 42.421C16.5723 41.8487 16.5506 40.1892 16.5433 38.3749C10.4613 39.6888 9.17607 35.8084 9.17607 35.8084C8.18411 33.2886 6.75047 32.6262 6.75047 32.6262C4.76655 31.2799 6.89892 31.3051 6.89892 31.3051C9.09643 31.4599 10.2513 33.5478 10.2513 33.5478C12.199 36.8703 15.3668 35.9092 16.6121 35.3476C16.8076 33.9401 17.376 32.9826 18.0023 32.4391C13.1439 31.8919 8.03929 30.0273 8.03929 21.6976C8.00918 19.5373 8.8154 17.4482 10.2911 15.8625C10.0667 15.3153 9.31725 13.1051 10.5047 10.1029C10.5047 10.1029 12.3402 9.51979 16.518 12.3312C20.1015 11.3568 23.8823 11.3568 27.4658 12.3312C31.64 9.51979 33.4718 10.1029 33.4718 10.1029C34.6629 13.0979 33.9135 15.3081 33.689 15.8625C35.1694 17.4484 35.9773 19.5412 35.9445 21.7048C35.9445 30.0525 30.829 31.8919 25.9633 32.4283C26.7453 33.105 27.444 34.4261 27.444 36.4563C27.444 39.3649 27.4187 41.7047 27.4187 42.421C27.4187 43.0006 27.8133 43.6773 28.9211 43.4649C33.8447 41.8301 38.0228 38.507 40.7081 34.09C43.3934 29.673 44.4109 24.4502 43.5785 19.3557C42.7461 14.2612 40.1182 9.62728 36.1646 6.28271C32.2111 2.93814 27.19 1.10108 21.9991 1.1001H21.9919Z" fill="#B4B4B4"/>
<path d="M8.40835 32.3131C8.36129 32.4211 8.18752 32.4535 8.04633 32.3779C7.90513 32.3023 7.80015 32.1619 7.85084 32.0503C7.90152 31.9387 8.07168 31.9099 8.21287 31.9855C8.35406 32.0611 8.46266 32.2051 8.40835 32.3131Z" fill="#B4B4B4"/>
<path d="M9.29518 33.296C9.2202 33.3335 9.13442 33.344 9.05253 33.3256C8.97064 33.3073 8.89773 33.2611 8.84626 33.1952C8.70507 33.044 8.67609 32.8352 8.7847 32.7416C8.89331 32.648 9.08882 32.6912 9.23001 32.8424C9.3712 32.9936 9.40378 33.2024 9.29518 33.296Z" fill="#B4B4B4"/>
<path d="M10.1562 34.545C10.0222 34.6386 9.79414 34.545 9.66743 34.3578C9.63239 34.3242 9.60453 34.2839 9.5855 34.2394C9.56646 34.1949 9.55664 34.147 9.55664 34.0986C9.55664 34.0502 9.56646 34.0023 9.5855 33.9578C9.60453 33.9133 9.63239 33.873 9.66743 33.8394C9.80138 33.7494 10.0295 33.8394 10.1562 34.023C10.2829 34.2066 10.2865 34.4514 10.1562 34.545V34.545Z" fill="#B4B4B4"/>
<path d="M11.3261 35.7543C11.2066 35.8875 10.964 35.8515 10.7649 35.6715C10.5658 35.4916 10.5187 35.2468 10.6382 35.1172C10.7577 34.9876 11.0002 35.0236 11.2066 35.2C11.4129 35.3764 11.4528 35.6247 11.3261 35.7543V35.7543Z" fill="#B4B4B4"/>
<path d="M12.9656 36.4601C12.9113 36.6293 12.6651 36.7049 12.419 36.6329C12.1728 36.5609 12.0099 36.3593 12.0569 36.1865C12.104 36.0137 12.3538 35.9345 12.6036 36.0137C12.8534 36.0929 13.0127 36.2837 12.9656 36.4601Z" fill="#B4B4B4"/>
<path d="M14.755 36.5825C14.755 36.7589 14.5523 36.91 14.2916 36.9136C14.031 36.9172 13.8174 36.7732 13.8174 36.5969C13.8174 36.4205 14.0201 36.2693 14.2808 36.2657C14.5414 36.2621 14.755 36.4025 14.755 36.5825Z" fill="#B4B4B4"/>
<path d="M16.4194 36.3051C16.452 36.4815 16.271 36.6651 16.0103 36.7083C15.7497 36.7515 15.5216 36.6471 15.489 36.4743C15.4564 36.3015 15.6447 36.1144 15.8981 36.0676C16.1515 36.0208 16.3869 36.1288 16.4194 36.3051Z" fill="#B4B4B4"/>
</svg>
