<svg width="185" height="41" viewBox="0 0 185 41" fill="none" xmlns="http://www.w3.org/2000/svg">
<path d="M45.3116 18.2775C44.8641 15.4778 42.6717 13.8414 39.9039 13.8414C36.5161 13.8414 34.0168 16.3791 34.0168 20.5659C34.0168 24.7527 36.5033 27.2903 39.9039 27.2903C42.7803 27.2903 44.8833 25.4877 45.3116 22.899L43.3173 22.8926C42.9785 24.5673 41.5722 25.4877 39.9167 25.4877C37.6731 25.4877 35.9792 23.7683 35.9792 20.5659C35.9792 17.389 37.6667 15.644 39.9231 15.644C41.5914 15.644 42.9913 16.5836 43.3173 18.2775H45.3116ZM59.4065 20.5659C59.4065 16.3791 56.9008 13.8414 53.513 13.8414C50.1124 13.8414 47.6132 16.3791 47.6132 20.5659C47.6132 24.7463 50.1124 27.2903 53.513 27.2903C56.9008 27.2903 59.4065 24.7527 59.4065 20.5659ZM57.4505 20.5659C57.4505 23.7555 55.763 25.4877 53.513 25.4877C51.2566 25.4877 49.5755 23.7555 49.5755 20.5659C49.5755 17.3762 51.2566 15.644 53.513 15.644C55.763 15.644 57.4505 17.3762 57.4505 20.5659ZM62.7228 14.0204H60.5879L65.2988 27.1113H67.5808L72.2917 14.0204H70.1567L66.5133 24.6824H66.3663L62.7228 14.0204ZM76.5173 14.0204H74.5421V27.1113H76.5173V14.0204ZM83.9916 27.1113C87.9803 27.1113 90.2878 24.6376 90.2878 20.5467C90.2878 16.475 87.9803 14.0204 84.1259 14.0204H79.7537V27.1113H83.9916ZM81.7288 25.3855V15.7463H84.0044C86.868 15.7463 88.3446 17.4593 88.3446 20.5467C88.3446 23.6468 86.868 25.3855 83.883 25.3855H81.7288ZM98.7353 19.7413H92.9313V21.3968H98.7353V19.7413ZM106.584 14.0204H104.66L101.393 16.1554V18.0474L104.525 16.002H104.602V27.1113H106.584V14.0204ZM114.838 13.8414C112.089 13.8159 110.293 15.791 110.293 18.2711C110.299 20.7704 112.108 22.573 114.378 22.573C115.765 22.573 116.954 21.8954 117.625 20.796H117.727C117.721 23.8066 116.589 25.5645 114.672 25.5645C113.419 25.5645 112.613 24.7974 112.358 23.6788H110.408C110.696 25.7946 112.332 27.2903 114.672 27.2903C117.714 27.2903 119.619 24.676 119.619 20.0929C119.613 15.3116 117.171 13.8606 114.838 13.8414ZM114.844 15.5034C116.359 15.5034 117.478 16.7882 117.478 18.2264C117.484 19.6838 116.302 20.9622 114.806 20.9622C113.304 20.9622 112.217 19.7605 112.211 18.2456C112.211 16.7243 113.342 15.5034 114.844 15.5034ZM128.697 27.1113L129.898 23.6468H135.012L136.207 27.1113H138.304L133.593 14.0204H131.311L126.6 27.1113H128.697ZM130.474 21.9849L132.404 16.3983H132.506L134.437 21.9849H130.474ZM140.554 27.1113H148.461V25.411H142.529V14.0204H140.554V27.1113ZM151.074 27.1113H159.359V25.411H153.05V21.4032H158.854V19.7093H153.05V15.7207H159.282V14.0204H151.074V27.1113ZM162.28 27.1113H164.255V22.1575H166.94C166.985 22.1575 167.023 22.1575 167.068 22.1575L169.727 27.1113H171.977L169.075 21.8123C170.679 21.2179 171.478 19.8819 171.478 18.1241C171.478 15.7143 169.983 14.0204 166.946 14.0204H162.28V27.1113ZM164.255 20.4572V15.7143H166.735C168.685 15.7143 169.49 16.6412 169.49 18.1241C169.49 19.6007 168.685 20.4572 166.761 20.4572H164.255ZM173.596 15.7207H177.674V27.1113H179.643V15.7207H183.728V14.0204H173.596V15.7207Z" fill="#FF0000"/>
<path d="M15.2325 13.1113L21.7277 24.3613C22.4975 25.6947 21.5353 27.3613 19.9957 27.3613H7.0053C5.4657 27.3613 4.50345 25.6947 5.27325 24.3613L11.7684 13.1113C12.5382 11.778 14.4627 11.778 15.2325 13.1113Z" stroke="#FF0000" stroke-width="2"/>
<path d="M14.6083 16.3841H12.712L12.8825 22.4949H14.4421L14.6083 16.3841ZM13.6623 25.2221C14.2077 25.2221 14.6808 24.7662 14.685 24.1994C14.6808 23.6412 14.2077 23.1852 13.6623 23.1852C13.0998 23.1852 12.6353 23.6412 12.6396 24.1994C12.6353 24.7662 13.0998 25.2221 13.6623 25.2221Z" fill="#FF0000"/>
</svg>
