<svg width="78" height="85" viewBox="0 0 78 85" fill="none" xmlns="http://www.w3.org/2000/svg">
<path d="M63.1105 29.1415C61.5426 27.7936 60.3288 26.0822 59.5752 24.1567C60.3294 24.8874 62.156 24.6163 64.996 22.8133C67.3528 21.3285 69.5212 19.8319 71.0767 18.736L71.7366 18.2764L72.6558 19.5726L72.0076 20.044C70.4521 21.1517 68.3309 22.7426 66.1744 24.4513C63.5229 26.5489 62.6627 28.1752 63.1105 29.1415Z" fill="#64CF83"/>
<path opacity="0.2" d="M71.8303 20.1501C71.6465 19.9586 71.4772 19.7538 71.3236 19.5373C71.1673 19.3213 71.0293 19.0927 70.9111 18.8538L71.7243 18.2764L72.6434 19.5726L71.8303 20.1501Z" fill="black"/>
<path d="M74.5175 20.6571C74.6436 20.5672 74.7482 20.4505 74.8239 20.3154C74.8302 20.2843 74.8302 20.2522 74.8239 20.2211C74.8239 20.2211 74.8239 20.1268 74.8239 20.0679C74.8239 20.009 74.8239 20.0679 74.8239 19.9854C74.8239 19.9029 74.8239 19.9029 74.8239 19.8558C74.7968 19.0402 74.5075 18.255 73.999 17.6168C73.5593 16.9338 72.9163 16.4062 72.1606 16.1084H72.031H71.6421C71.4891 16.1345 71.3441 16.1949 71.2179 16.2852C71.0918 16.3751 70.9871 16.4918 70.9115 16.6269C70.5579 17.1454 70.8172 18.3003 71.5832 19.3727C72.3492 20.445 73.339 21.0696 73.94 20.9046C74.1514 20.8759 74.3509 20.7904 74.5175 20.6571Z" fill="#64CF83"/>
<path opacity="0.3" d="M74.199 19.4785C73.8455 19.7259 73.1384 19.3371 72.6081 18.5946C72.0778 17.8522 71.9482 17.0627 72.2899 16.8034C72.6317 16.5442 72.8673 16.8034 73.2327 17.0155C72.7495 16.827 72.4313 17.157 72.5609 17.7108C72.7677 18.302 73.145 18.8187 73.6451 19.1956C73.9633 19.3842 74.2225 19.4431 74.3757 19.1956C74.3669 19.2523 74.3467 19.3065 74.3163 19.3551C74.2859 19.4038 74.246 19.4457 74.199 19.4785Z" fill="black"/>
<path d="M55.9805 20.6564C54.0168 20.0126 52.2158 18.9512 50.7012 17.5454C51.6911 17.9225 52.5749 18.0521 54.2365 15.5538C55.6034 13.5269 55.7566 13.4209 56.5933 12.0185C56.7347 11.8064 56.8526 11.5943 56.9704 11.4058L58.3374 12.2189L57.9721 12.8317C57.1236 14.3047 57.0647 14.4579 55.9452 16.638C54.6135 19.3012 55.1674 20.0083 55.9805 20.6564Z" fill="#64CF83"/>
<path opacity="0.2" d="M57.8778 13.0552C57.6292 12.9565 57.3889 12.8383 57.1589 12.7017C56.9263 12.5676 56.7055 12.4138 56.499 12.2421L57.0175 11.3818L58.3845 12.195L57.8778 13.0552Z" fill="black"/>
<path d="M61.0835 12.4077C61.1823 12.2512 61.2428 12.0735 61.2602 11.8892V11.7596C61.2717 11.6973 61.2717 11.6334 61.2602 11.5711C61.2669 11.54 61.2669 11.5078 61.2602 11.4768C61.2638 11.4258 61.2638 11.3746 61.2602 11.3236C60.7961 10.4808 60.1134 9.77874 59.2838 9.29138C58.4543 8.80402 57.5086 8.54937 56.5465 8.55427H56.3933H56.299L56.1223 8.62498L56.028 8.69568C55.8724 8.79761 55.7432 8.93491 55.6509 9.09635C55.5538 9.24941 55.4933 9.42282 55.4741 9.60307C55.3445 10.3455 56.1812 11.465 57.5246 12.2545C58.868 13.0441 60.2586 13.2444 60.836 12.773C60.9382 12.6659 61.0219 12.5424 61.0835 12.4077Z" fill="#64CF83"/>
<path opacity="0.3" d="M60.2109 11.3586C59.9516 11.7947 59.0324 11.7122 58.0661 11.1701C57.0998 10.628 56.6049 9.82669 56.8877 9.37888C57.0409 9.10784 57.4769 9.03714 57.9954 9.15498C57.3944 9.15498 57.1941 9.68528 57.6183 10.2274C58.1212 10.773 58.7793 11.1514 59.5038 11.3115C59.9398 11.3704 60.2462 11.3115 60.2816 10.9462C60.2977 11.0162 60.2997 11.0887 60.2876 11.1595C60.2755 11.2303 60.2494 11.298 60.2109 11.3586Z" fill="black"/>
<path d="M45.4924 15.9427C43.7614 16.0918 42.0182 15.8914 40.3662 15.3535C41.25 15.3535 42.0867 14.2929 42.4874 12.0185C42.6711 11.3372 42.8089 10.6443 42.8998 9.94449C42.8998 9.74416 42.8998 9.56739 42.9705 9.39062L44.3022 9.54382C44.3022 9.72059 44.3022 9.89735 44.3022 10.0977C44.2244 10.798 44.2047 11.5035 44.2432 12.2071C44.0665 14.4932 44.6321 15.6834 45.4924 15.9427Z" fill="#64CF83"/>
<path opacity="0.2" d="M44.2076 10.3569C43.984 10.3742 43.7595 10.3742 43.5359 10.3569C43.3124 10.3342 43.0915 10.2908 42.876 10.2273C42.876 9.93271 42.876 9.64988 42.9702 9.39062L44.3019 9.54382C44.2783 9.77951 44.2429 10.0506 44.2076 10.3569Z" fill="black"/>
<path d="M46.0109 8.93121C46.0341 8.80262 46.0341 8.67092 46.0109 8.54233C46.0147 8.51497 46.0147 8.4872 46.0109 8.45984C45.9967 8.41214 45.9726 8.36796 45.9402 8.33021L45.8695 8.24772C45.3425 7.8104 44.6909 7.55059 44.0075 7.50531C43.333 7.39694 42.6415 7.49985 42.0278 7.79992L41.9453 7.85884L41.851 7.9649V8.0356C41.7767 8.144 41.732 8.26993 41.7214 8.40091C41.6918 8.52488 41.6918 8.65405 41.7214 8.77801C41.851 9.29652 42.723 9.77968 43.819 9.95644C44.9149 10.1332 45.8695 9.81503 46.1169 9.33188C46.1134 9.19186 46.0771 9.05463 46.0109 8.93121Z" fill="#64CF83"/>
<path opacity="0.3" d="M45.1389 8.51856C45.1389 8.87208 44.4436 9.09598 43.6895 9.01349C42.9353 8.931 42.346 8.55391 42.3814 8.20038C42.4167 7.84685 42.676 7.79971 43.0413 7.729C42.6642 7.91755 42.676 8.30644 43.112 8.54212C43.5961 8.74428 44.1295 8.79761 44.644 8.69532C44.9504 8.61283 45.1271 8.47142 45.0564 8.23573C45.1159 8.31758 45.1451 8.41757 45.1389 8.51856Z" fill="black"/>
<path d="M34.8752 15.7198C33.118 16.7887 31.1295 17.4193 29.0774 17.5581C30.0083 17.0632 30.3147 15.272 29.4898 12.0431C28.8181 9.41516 28.0875 6.9051 27.5218 5.1021C27.4393 4.83106 27.3686 4.58359 27.2861 4.3479L28.8063 3.86475C28.8888 4.10043 28.9595 4.3479 29.0538 4.61894C29.6312 6.41016 30.4679 8.89665 31.4106 11.4421C32.6126 14.5531 33.7911 15.8494 34.8752 15.7198Z" fill="#64CF83"/>
<path opacity="0.2" d="M29.0766 4.81928C28.8389 4.94061 28.5903 5.03925 28.3342 5.11388C28.0785 5.19069 27.8189 5.25364 27.5564 5.30243L27.25 4.3479L28.7702 3.86475L29.0766 4.81928Z" fill="black"/>
<path opacity="0.3" d="M29.443 1.80206C29.608 2.32057 28.8655 2.98049 27.7814 3.35759C26.6972 3.73469 25.6956 3.54614 25.5306 3.03942C25.4363 2.72124 25.6838 2.33236 26.1434 2.00239C25.7309 2.49734 25.9902 3.01585 26.7208 3.06298C27.4976 3.04716 28.2523 2.80108 28.8891 2.35593C29.2426 2.04954 29.4076 1.75493 29.1602 1.48389C29.2894 1.55274 29.3898 1.66561 29.443 1.80206Z" fill="black"/>
<path d="M24.5055 20.0675C23.2293 21.5395 21.7631 22.8354 20.1453 23.9209C20.817 23.1903 20.8523 22.0354 19.8271 20.6331C19.0022 19.4547 18.1302 18.4177 17.4703 17.6752L17.1992 17.3689L18.3776 16.3672L18.6605 16.6736C19.3086 17.4042 20.2631 18.3941 21.3002 19.3604C22.5493 20.5388 23.6924 20.6567 24.5055 20.0675Z" fill="#64CF83"/>
<path opacity="0.2" d="M18.789 16.8503C18.624 17.0271 18.4472 17.2039 18.2469 17.3806C18.0583 17.5522 17.8574 17.7097 17.6459 17.852L17.2217 17.3689L18.4001 16.3672L18.789 16.8503Z" fill="black"/>
<path d="M19.0013 14.4462C18.9078 14.3438 18.7958 14.2598 18.6713 14.1987H18.5771H18.4357H18.2471C17.5285 14.3 16.8603 14.6258 16.338 15.1297C15.7713 15.5873 15.3597 16.2087 15.1596 16.9091C15.1648 16.9482 15.1648 16.9879 15.1596 17.027V17.0977C15.1538 17.1446 15.1538 17.1921 15.1596 17.2391C15.1649 17.2703 15.1649 17.3022 15.1596 17.3334C15.2053 17.4656 15.273 17.5891 15.3599 17.6987C15.4538 17.7977 15.5658 17.8778 15.6899 17.9344C16.1849 18.2054 17.1865 17.8637 18.0468 17.0859C18.907 16.3081 19.3902 15.3654 19.2252 14.8351C19.1792 14.691 19.1028 14.5584 19.0013 14.4462Z" fill="#64CF83"/>
<path opacity="0.3" d="M18.0593 14.8349C18.3185 15.1177 18.0593 15.7894 17.4229 16.3197C16.7866 16.85 16.1148 17.0503 15.8674 16.7675C15.6199 16.4847 15.7495 16.2608 15.9617 15.919C15.832 16.355 16.162 16.6143 16.6451 16.4375C17.135 16.1929 17.5441 15.8124 17.8236 15.3416C17.965 15.047 17.9886 14.8113 17.7411 14.7052C17.8004 14.7019 17.8597 14.7118 17.9148 14.7342C17.9698 14.7566 18.0192 14.791 18.0593 14.8349Z" fill="black"/>
<path d="M17.0096 28.0927C16.6117 30.1108 15.7392 32.0053 14.4642 33.6195C14.7235 32.5943 13.604 31.1684 10.6697 29.6364C8.31282 28.3873 5.95595 27.2796 4.23545 26.4664L3.5166 26.1365L4.18832 24.687L4.90716 25.017C6.61588 25.783 9.0081 26.8082 11.5182 27.7981C14.5939 29.0472 16.3968 28.9058 17.0096 28.0927Z" fill="#64CF83"/>
<path opacity="0.2" d="M5.09569 25.1346C5.0203 25.3927 4.92577 25.6448 4.81288 25.8888C4.70857 26.1353 4.58235 26.3719 4.43578 26.5959L3.5166 26.1716L4.18832 24.7222L5.09569 25.1346Z" fill="black"/>
<path d="M4.05894 21.4578C3.86492 21.3755 3.65685 21.3315 3.44615 21.3281H3.24582H3.02192H2.92764C2.8688 21.3414 2.81289 21.3654 2.76266 21.3988C1.858 22.0268 1.13888 22.8865 0.680683 23.8879C0.222483 24.8893 0.042074 25.9956 0.15834 27.0907C0.15834 27.0907 0.15834 27.2085 0.15834 27.2556V27.3617L0.264395 27.562L0.346875 27.6681C0.483914 27.8347 0.657253 27.9677 0.85361 28.057C1.04313 28.1403 1.24757 28.1844 1.4546 28.1866C2.31486 28.1866 3.49328 27.1496 4.24748 25.5233C5.00167 23.8971 5.03704 22.2827 4.42425 21.6699C4.31349 21.5817 4.19042 21.5102 4.05894 21.4578Z" fill="#64CF83"/>
<path opacity="0.3" d="M2.98662 22.5892C3.51692 22.8249 3.54049 23.9444 2.98662 25.0639C2.43276 26.1834 1.61964 26.9023 1.08935 26.6548C0.759387 26.5134 0.61798 26.0302 0.688686 25.4764C0.794745 26.1599 1.40752 26.3249 1.97317 25.7828C2.52696 25.136 2.87927 24.3413 2.98662 23.4966C2.98662 22.9899 2.88055 22.6364 2.47989 22.6364C2.55546 22.5911 2.64021 22.5634 2.72791 22.5553C2.8156 22.5471 2.90401 22.5587 2.98662 22.5892Z" fill="black"/>
<path d="M13.4155 38.4512C13.7398 40.5817 13.7159 42.7508 13.3448 44.8736C13.2269 43.7777 12.1074 42.8939 9.80946 42.6817C7.91219 42.5168 6.08563 42.4343 4.77757 42.4107H4.21191V40.7373H4.76578C6.07384 40.7373 7.91219 40.7373 9.80946 40.5606C12.131 40.3956 13.2623 39.5118 13.4155 38.4512Z" fill="#64CF83"/>
<path opacity="0.2" d="M4.97822 40.6904C4.97822 40.9615 4.97822 41.2325 4.97822 41.5271C4.97701 41.8109 4.95732 42.0943 4.91929 42.3756H4.15332V40.7022L4.97822 40.6904Z" fill="black"/>
<path d="M3.01028 38.7935C2.85628 38.7953 2.70414 38.8274 2.56247 38.8877H2.46819L2.33856 38.982H2.27964L2.18536 39.0763C1.72391 39.7729 1.49685 40.5986 1.53724 41.4332C1.48051 42.2644 1.69556 43.0916 2.15001 43.79L2.23251 43.8843H2.29143L2.42106 43.9786H2.51534C2.6553 44.0456 2.80799 44.0817 2.96313 44.0846C3.11712 44.0828 3.26927 44.0507 3.41094 43.9904C4.00016 43.7782 4.47153 42.6941 4.48332 41.3742C4.4951 40.0544 4.04728 39.0174 3.45807 38.7463C3.30719 38.7252 3.15344 38.7414 3.01028 38.7935Z" fill="#64CF83"/>
<path opacity="0.3" d="M2.62183 39.8652C3.05785 39.8652 3.39959 40.6076 3.38781 41.515C3.37602 42.4224 3.02249 43.153 2.59826 43.153C2.17402 43.153 2.09154 42.8702 1.96191 42.4342C2.23295 42.8702 2.69253 42.7995 2.90464 42.2574C3.08248 41.6616 3.08248 41.0267 2.90464 40.4309C2.76323 40.0773 2.57469 39.8888 2.30365 40.0066C2.38845 39.9216 2.50188 39.8712 2.62183 39.8652Z" fill="black"/>
<path d="M14.5238 50.353C15.2296 51.7524 15.8513 53.1927 16.3857 54.6661C16.1029 54.0769 15.4901 53.417 14.8419 53.4877C14.3593 53.5666 13.8857 53.6929 13.4278 53.8648L13.2864 53.9355L12.8857 53.0163H13.0272C13.4591 52.8117 13.8566 52.5414 14.2056 52.215C14.4429 51.9745 14.6006 51.667 14.6575 51.334C14.7144 51.001 14.6677 50.6586 14.5238 50.353Z" fill="#64CF83"/>
<path opacity="0.2" d="M13.2275 52.9106C13.2982 53.0403 13.3689 53.1935 13.4396 53.3584C13.5068 53.5083 13.5658 53.6618 13.6164 53.818L13.2864 53.9712L12.8857 53.0521L13.2275 52.9106Z" fill="black"/>
<path opacity="0.3" d="M11.3063 52.8988C11.6127 52.7692 12.0841 53.1816 12.3669 53.8298C12.6497 54.4779 12.6144 55.0907 12.3669 55.2321C12.1194 55.3735 11.9309 55.2321 11.6952 54.9257C12.0252 55.1378 12.3316 54.9257 12.308 54.5015C12.2475 54.0219 12.0466 53.5709 11.7305 53.2052C11.5302 53.0049 11.3299 52.9224 11.1885 53.0991C11.2022 53.0203 11.244 52.9491 11.3063 52.8988Z" fill="black"/>
<path d="M19.9557 59.8037C21.7528 60.8111 23.3154 62.1889 24.5398 63.8457C23.6442 63.2919 22.8075 62.9855 20.7453 65.0242C19.0601 66.7211 18.8952 66.78 17.7874 68.0174L17.3278 68.5359L16.1494 67.4871L16.609 66.9568C17.6932 65.7076 17.7874 65.5662 19.2487 63.6925C21.0281 61.4182 20.6157 60.6168 19.9557 59.8037Z" fill="#64CF83"/>
<path opacity="0.2" d="M16.7976 66.7686C17.0235 66.9106 17.2364 67.0723 17.4339 67.2517C17.6332 67.4253 17.8184 67.6144 17.9878 67.8174L17.3278 68.5716L16.1494 67.5227L16.7976 66.7686Z" fill="black"/>
<path d="M13.522 66.804C13.4031 66.9473 13.3112 67.111 13.251 67.2872V67.405C13.251 67.4757 13.251 67.5346 13.251 67.6053C13.251 67.676 13.251 67.6643 13.251 67.6996C13.251 67.735 13.251 67.7939 13.251 67.8528C13.5108 68.7815 14.0547 69.6057 14.8065 70.2097C15.4961 70.8857 16.3839 71.3235 17.3401 71.4588H17.5994H17.7879H17.894C18.0643 71.386 18.217 71.2775 18.3418 71.1406C18.4634 71.0056 18.5521 70.8443 18.601 70.6693C18.8721 69.9622 18.2593 68.7131 17.0927 67.676C15.926 66.639 14.6062 66.1912 13.9345 66.4976C13.7761 66.5682 13.6353 66.6728 13.522 66.804Z" fill="#64CF83"/>
<path opacity="0.3" d="M14.1816 67.9945C14.5116 67.6056 15.4426 67.8766 16.2557 68.5837C17.0688 69.2908 17.4341 70.1864 17.0924 70.5635C16.7506 70.9406 16.456 70.7991 15.9139 70.5635C16.5149 70.6577 16.7978 70.1981 16.4914 69.5854C16.0939 68.9624 15.5251 68.4673 14.8533 68.1595C14.4291 68.0181 14.1109 68.0298 14.0049 68.3716C14.008 68.3002 14.0253 68.2301 14.0556 68.1654C14.0859 68.1007 14.1288 68.0426 14.1816 67.9945Z" fill="black"/>
<path d="M29.4659 66.3921C31.1923 66.5828 32.8652 67.1071 34.3917 67.9358C33.5079 67.8062 32.5062 68.6429 31.6931 70.7641C31.3825 71.3838 31.1185 72.0259 30.9036 72.6849C30.8329 72.8735 30.7857 73.0502 30.7386 73.2034L29.4541 72.8028C29.4541 72.6378 29.5601 72.4728 29.6073 72.2842C29.8087 71.6165 29.9623 70.9352 30.0669 70.2456C30.609 68.0419 30.2554 66.781 29.4659 66.3921Z" fill="#64CF83"/>
<path opacity="0.2" d="M29.7016 72.001C29.9259 72.0308 30.1469 72.0821 30.3615 72.1542C30.5758 72.2203 30.7846 72.303 30.986 72.4016C30.8918 72.6845 30.8093 72.9555 30.7386 73.203L29.4541 72.8023C29.5366 72.5077 29.6191 72.2838 29.7016 72.001Z" fill="black"/>
<path d="M27.6748 73.0615C27.6397 73.1888 27.6397 73.3231 27.6748 73.4504C27.6691 73.4776 27.6691 73.5057 27.6748 73.5329C27.6699 73.576 27.6699 73.6194 27.6748 73.6625V73.7568C28.111 74.2892 28.7053 74.6689 29.3717 74.8409C30.0135 75.082 30.7156 75.1109 31.3751 74.9234H31.4693H31.54L31.6461 74.8527H31.705C31.7897 74.7547 31.8533 74.6403 31.8918 74.5166C31.9304 74.3929 31.943 74.2627 31.9289 74.1339C31.9289 73.6036 31.1394 72.9554 30.0788 72.6255C29.7034 72.4517 29.2899 72.3767 28.8774 72.4077C28.4649 72.4386 28.0672 72.5744 27.7219 72.8023C27.6934 72.8858 27.6775 72.9732 27.6748 73.0615Z" fill="#64CF83"/>
<path opacity="0.3" d="M28.4401 73.6855C28.5462 73.332 29.2297 73.2377 29.9603 73.4734C30.6909 73.7091 31.1976 74.1687 31.0798 74.5104C30.962 74.8522 30.7263 74.8522 30.3492 74.8522C30.7616 74.7344 30.8206 74.3455 30.4435 74.0391C30.003 73.7477 29.4867 73.592 28.9586 73.5913C28.6404 73.5913 28.4401 73.7209 28.4755 73.9684C28.4294 73.8816 28.4168 73.781 28.4401 73.6855Z" fill="black"/>
<path d="M39.8945 68.6071C41.8369 67.8933 43.9219 67.6549 45.9752 67.9118C44.9618 68.2182 44.3137 69.9034 44.514 73.203C44.679 75.8898 44.9264 78.4706 45.1268 80.2736C45.1268 80.5564 45.1268 80.8156 45.2093 81.0513L43.6302 81.2399C43.6302 80.9924 43.6302 80.7331 43.5359 80.4503C43.312 78.6002 42.9585 76.0194 42.5106 73.3797C41.9568 70.1508 40.9551 68.6778 39.8945 68.6071Z" fill="#64CF83"/>
<path opacity="0.2" d="M43.5127 80.2971C43.7719 80.2299 44.0358 80.1826 44.3022 80.1557C44.5689 80.133 44.837 80.133 45.1036 80.1557C45.1036 80.5093 45.1389 80.8392 45.2096 81.1456L43.6305 81.3342C43.5952 80.9924 43.5598 80.6507 43.5127 80.2971Z" fill="black"/>
<path d="M41.2028 82.8784C41.2223 83.0714 41.2869 83.2571 41.3913 83.4205C41.4065 83.4608 41.4307 83.4971 41.462 83.5266L41.6035 83.668L41.686 83.7387L41.8156 83.833C42.7366 84.2422 43.7505 84.3969 44.7517 84.2808C45.7528 84.1647 46.7045 83.7822 47.5074 83.1731L47.6135 83.0552L47.6724 82.9727C47.7162 82.9193 47.7519 82.8597 47.7784 82.796V82.6781C47.8203 82.4879 47.8203 82.2909 47.7784 82.1007C47.7533 81.909 47.6891 81.7245 47.5899 81.5586C47.2364 80.8633 45.8223 80.4509 44.196 80.6394C42.5698 80.828 41.2735 81.5468 41.085 82.3128C41.0871 82.5072 41.1271 82.6993 41.2028 82.8784Z" fill="#64CF83"/>
<path opacity="0.3" d="M42.5939 83.1959C42.5232 82.6538 43.3835 82.1117 44.5148 82.0174C45.646 81.9232 46.6006 82.2295 46.6595 82.7598C46.6595 83.0898 46.3767 83.4198 45.8699 83.6554C46.3649 83.2548 46.1999 82.6891 45.5046 82.477C44.7352 82.3436 43.9435 82.442 43.2303 82.7598C42.8296 82.9837 42.6175 83.243 42.806 83.5612C42.748 83.5176 42.6994 83.4628 42.6629 83.4C42.6265 83.3373 42.603 83.2678 42.5939 83.1959Z" fill="black"/>
<path d="M50.9248 66.2499C52.4636 65.0515 54.151 64.0573 55.9449 63.292C55.1436 63.8812 54.8726 65.0007 55.6032 66.568C56.2042 67.8407 56.8405 69.031 57.3237 69.8676L57.524 70.2212L56.2278 70.9871C56.1571 70.8811 56.0981 70.7632 56.0156 70.6454C55.5089 69.8087 54.7783 68.6774 53.9534 67.5343C52.9399 66.1556 51.8322 65.8374 50.9248 66.2499Z" fill="#64CF83"/>
<path opacity="0.2" d="M55.8984 70.4335C56.087 70.2921 56.2991 70.1507 56.523 70.0093L57.2065 69.6558C57.3125 69.8561 57.4304 70.0446 57.5247 70.2214L56.2284 70.9874C56.1813 70.8224 56.0163 70.6339 55.8984 70.4335Z" fill="black"/>
<path d="M55.2265 72.7551C55.3018 72.8732 55.3976 72.977 55.5093 73.0615H55.5918H55.7214H55.7922H55.91C56.6355 73.1044 57.3553 72.91 57.9605 72.5076C58.5952 72.1632 59.1093 71.6327 59.4335 70.9874C59.4437 70.9528 59.4437 70.916 59.4335 70.8814C59.4386 70.8581 59.4386 70.834 59.4335 70.8107C59.4393 70.7637 59.4393 70.7162 59.4335 70.6693V70.5396C59.419 70.4021 59.3747 70.2695 59.3039 70.1507C59.2361 70.0307 59.1438 69.9262 59.0329 69.8444C58.5851 69.4908 57.548 69.644 56.5346 70.2332C55.5211 70.8225 54.8965 71.6709 54.9908 72.2248C55.0239 72.4184 55.105 72.6007 55.2265 72.7551Z" fill="#64CF83"/>
<path opacity="0.3" d="M56.1813 72.5072C55.9928 72.1772 56.3934 71.5762 57.0887 71.1637C57.784 70.7513 58.5146 70.6924 58.7032 71.0223C58.8917 71.3523 58.7032 71.5408 58.4439 71.8354C58.656 71.4348 58.4439 71.1166 57.8782 71.1991C57.3382 71.3327 56.85 71.624 56.4759 72.0358C56.2874 72.3068 56.2167 72.5425 56.4759 72.6839C56.4165 72.679 56.3591 72.6605 56.308 72.6298C56.257 72.5992 56.2136 72.5572 56.1813 72.5072Z" fill="black"/>
<path d="M59.834 59.6035C60.4802 57.6189 61.7128 55.8768 63.3693 54.6069C62.9686 55.5968 64.147 57.4587 67.4466 60.0395C68.2362 60.6405 69.8978 62.196 71.8186 63.5748L72.6317 64.1522L71.7126 65.4485L70.8994 64.8711C68.955 63.5041 66.8574 62.0428 66.28 61.6657C62.7801 59.3914 60.6353 58.8964 59.834 59.6035Z" fill="#64CF83"/>
<path opacity="0.2" d="M70.9111 64.8832C71.0267 64.6428 71.1648 64.414 71.3236 64.1997C71.4772 63.9832 71.6465 63.7784 71.8303 63.5869L72.6434 64.1643L71.7243 65.4606L70.9111 64.8832Z" fill="black"/>
<path d="M71.2292 68.6891C71.4003 68.8145 71.5978 68.8992 71.8066 68.9365H71.948H72.0069C72.0815 68.9425 72.1563 68.9425 72.2308 68.9365H72.3369H72.5137C73.548 68.5329 74.427 67.8106 75.0237 66.8743C75.7174 66.0049 76.1103 64.9339 76.1432 63.8221C76.1432 63.8221 76.1432 63.7043 76.1432 63.6454C76.1432 63.5865 76.1432 63.5747 76.1432 63.5393C76.1303 63.4669 76.1106 63.3959 76.0843 63.3272V63.2683C76.0695 63.2268 76.0497 63.1872 76.0254 63.1504C75.9165 62.9668 75.7724 62.8066 75.6012 62.6791C75.4332 62.5559 75.24 62.4714 75.0355 62.4316C74.1988 62.2077 72.8319 63.0562 71.7948 64.5174C70.7578 65.9787 70.3925 67.546 70.8757 68.2648C70.9675 68.4261 71.0872 68.5697 71.2292 68.6891Z" fill="#64CF83"/>
<path opacity="0.3" d="M72.503 67.7934C72.0198 67.4517 72.2084 66.3557 72.9272 65.3423C73.6461 64.3288 74.6241 63.7986 75.0955 64.1639C75.3901 64.376 75.4373 64.8827 75.2487 65.4601C75.2487 64.7649 74.7066 64.4938 74.0703 64.9181C73.4062 65.4488 72.9108 66.1612 72.6444 66.9685C72.5383 67.4753 72.5855 67.8288 72.9862 67.9113C72.9018 67.9244 72.8157 67.9208 72.7328 67.9005C72.6499 67.8803 72.5718 67.8439 72.503 67.7934Z" fill="black"/>
<path d="M65.1012 50.3295C65.0813 48.1622 65.5148 46.0147 66.3739 44.0249C66.3739 45.1326 67.5524 46.2875 70.522 47.0653C72.8789 47.7016 72.6786 47.6073 74.3519 47.9491L75.059 48.1023L74.729 49.7403L74.022 49.5989C72.3368 49.2689 72.5489 49.481 70.0978 49.1393C67.1046 48.7268 65.4901 49.2925 65.1012 50.3295Z" fill="#64CF83"/>
<path opacity="0.2" d="M73.9756 49.5872C73.9756 49.328 74.0463 49.0452 74.0934 48.7623C74.1473 48.4872 74.2181 48.2156 74.3055 47.9492L75.0597 48.1024L74.7298 49.7404L73.9756 49.5872Z" fill="black"/>
<path d="M75.5308 51.8733C75.6866 51.903 75.8465 51.903 76.0022 51.8733H76.0965C76.1478 51.8594 76.1959 51.8354 76.2379 51.8026H76.3086L76.4029 51.7201C76.9377 51.1165 77.3033 50.3821 77.4627 49.5915C77.622 48.8009 77.5694 47.9822 77.3102 47.2185L77.2395 47.1125V47.0418L77.1335 46.9239C77.1063 46.9293 77.0782 46.9293 77.051 46.9239C76.9212 46.8376 76.7778 46.7738 76.6268 46.7354C76.4756 46.7002 76.3183 46.7002 76.1672 46.7354C75.5426 46.8297 74.8827 47.8078 74.6234 49.0922C74.3642 50.3767 74.6234 51.5434 75.1301 51.8733C75.2627 51.8962 75.3983 51.8962 75.5308 51.8733Z" fill="#64CF83"/>
<path opacity="0.3" d="M76.1204 50.8828C75.6962 50.8003 75.4958 50.0107 75.6844 49.1269C75.8729 48.2431 76.3443 47.5832 76.7686 47.6657C77.1928 47.7481 77.2046 48.0428 77.2635 48.4906C77.075 48.0192 76.6036 48.0074 76.2972 48.4906C76.0053 49.0438 75.8862 49.6719 75.9554 50.2936C76.0262 50.6471 76.1676 50.8828 76.4622 50.8121C76.3615 50.8785 76.2392 50.9038 76.1204 50.8828Z" fill="black"/>
<path d="M66.4217 38.3336C65.9913 36.8268 65.6489 35.2962 65.3965 33.7495C65.5732 34.3741 66.0446 35.1401 66.7045 35.1636C67.1945 35.1815 67.685 35.142 68.1658 35.0458H68.319L68.5311 36.0121H68.3897C67.9148 36.1227 67.4611 36.3098 67.0463 36.566C66.7751 36.7624 66.5701 37.0367 66.4585 37.3525C66.3469 37.6682 66.3341 38.0104 66.4217 38.3336Z" fill="#64CF83"/>
<path opacity="0.2" d="M68.177 36.082C68.177 35.9288 68.0827 35.7638 68.0473 35.5989C68.012 35.4339 67.9884 35.2689 67.9648 35.1039L68.3184 35.0332L68.5305 35.9995L68.177 36.082Z" fill="black"/>
<path d="M69.9564 37.3192C70.0899 37.295 70.2154 37.2384 70.3217 37.1542L70.4042 37.0599C70.4 37.0286 70.4 36.9969 70.4042 36.9656C70.5917 36.3708 70.6185 35.7371 70.4819 35.1286C70.3453 34.5201 70.0502 33.9586 69.6265 33.501H69.544H69.4261H69.3554C69.2348 33.4775 69.1107 33.4775 68.9901 33.501C68.8757 33.5326 68.768 33.5845 68.6719 33.6542C68.2713 33.9135 68.1063 34.8327 68.3302 35.8108C68.5541 36.7889 69.0726 37.5431 69.5086 37.6138C69.6903 37.577 69.8507 37.4714 69.9564 37.3192Z" fill="#64CF83"/>
<path opacity="0.3" d="M70.0628 36.4475C69.7328 36.5182 69.3439 36.0232 69.1907 35.3397C69.0375 34.6562 69.1907 34.0435 69.5089 33.9727C69.8271 33.902 69.9331 34.1024 70.1099 34.397C69.8389 34.1259 69.4971 34.2556 69.4264 34.7034C69.3923 35.1859 69.5075 35.6673 69.7564 36.0821C69.9213 36.3178 70.0981 36.4239 70.2749 36.2943C70.2518 36.3329 70.2211 36.3664 70.1846 36.3928C70.1482 36.4191 70.1067 36.4377 70.0628 36.4475Z" fill="black"/>
<path d="M55.4148 63.8227C51.0851 66.9083 45.9378 68.6406 40.6236 68.8006C35.3094 68.9606 30.0671 67.5411 25.5597 64.7216C21.0523 61.9022 17.4823 57.8094 15.301 52.9609C13.1198 48.1123 12.4253 42.7258 13.3055 37.4826C14.1857 32.2394 16.601 27.375 20.2459 23.5045C23.8908 19.634 28.6017 16.9313 33.7827 15.7383C38.9637 14.5452 44.3821 14.9154 49.3527 16.8019C54.3233 18.6884 58.6229 22.0066 61.7076 26.3368C65.8433 32.1425 67.5038 39.3531 66.3237 46.3829C65.1436 53.4126 61.2196 59.6858 55.4148 63.8227Z" fill="#64CF83"/>
<path d="M55.4148 63.8227C51.0851 66.9083 45.9378 68.6406 40.6236 68.8006C35.3094 68.9606 30.0671 67.5411 25.5597 64.7216C21.0523 61.9022 17.4823 57.8094 15.301 52.9609C13.1198 48.1123 12.4253 42.7258 13.3055 37.4826C14.1857 32.2394 16.601 27.375 20.2459 23.5045C23.8908 19.634 28.6017 16.9313 33.7827 15.7383C38.9637 14.5452 44.3821 14.9154 49.3527 16.8019C54.3233 18.6884 58.6229 22.0066 61.7076 26.3368C65.8433 32.1425 67.5038 39.3531 66.3237 46.3829C65.1436 53.4126 61.2196 59.6858 55.4148 63.8227Z" fill="#64CF83"/>
<path opacity="0.4" d="M55.4148 63.8227C51.0851 66.9083 45.9378 68.6406 40.6236 68.8006C35.3094 68.9606 30.0671 67.5411 25.5597 64.7216C21.0523 61.9022 17.4823 57.8094 15.301 52.9609C13.1198 48.1123 12.4253 42.7258 13.3055 37.4826C14.1857 32.2394 16.601 27.375 20.2459 23.5045C23.8908 19.634 28.6017 16.9313 33.7827 15.7383C38.9637 14.5452 44.3821 14.9154 49.3527 16.8019C54.3233 18.6884 58.6229 22.0066 61.7076 26.3368C65.8433 32.1425 67.5038 39.3531 66.3237 46.3829C65.1436 53.4126 61.2196 59.6858 55.4148 63.8227Z" fill="white"/>
<path opacity="0.1" d="M47.1186 67.7938C39.3881 69.7382 19.8143 64.2585 16.3733 45.0737C12.9323 25.8888 31.6929 16.0371 38.4335 15.0708C34.6594 15.271 30.9698 16.2649 27.6058 17.9876C24.2417 19.7103 21.2787 22.123 18.9103 25.0683C16.5418 28.0136 14.821 31.4253 13.8604 35.0807C12.8997 38.736 12.7207 42.5529 13.335 46.2821C13.9493 50.0113 15.3431 53.5691 17.4255 56.7232C19.5079 59.8773 22.2321 62.5567 25.4201 64.5867C28.6082 66.6167 32.1885 67.9516 35.9273 68.5042C39.6662 69.0568 43.4796 68.8147 47.1186 67.7938Z" fill="black"/>
<path d="M24.6459 36.5185C24.2923 38.5218 22.7839 39.9241 21.2873 39.6531C19.7907 39.3821 18.8598 37.5555 19.2015 35.5639C19.5432 33.5724 21.0634 32.1701 22.56 32.4293C24.0566 32.6886 24.9994 34.5269 24.6459 36.5185Z" fill="#64CF83"/>
<path opacity="0.1" d="M24.6459 36.5185C24.2923 38.5218 22.7839 39.9241 21.2873 39.6531C19.7907 39.3821 18.8598 37.5555 19.2015 35.5639C19.5432 33.5724 21.0634 32.1701 22.56 32.4293C24.0566 32.6886 24.9994 34.5269 24.6459 36.5185Z" fill="black"/>
<path opacity="0.25" d="M21.453 33.4546C22.2307 32.9007 23.4681 33.9495 23.2678 35.8114C23.1028 37.2845 22.2072 38.5454 21.3469 38.675C21.0434 38.7018 20.7413 38.61 20.504 38.4188C20.2667 38.2277 20.1126 37.952 20.0742 37.6498C20.4042 38.1801 21.0641 38.2743 21.6887 37.6498C22.0797 37.2292 22.3624 36.7197 22.5123 36.1653C22.6622 35.6109 22.6748 35.0283 22.5489 34.468C22.3604 33.7609 21.9008 33.3956 21.453 33.4546Z" fill="black"/>
<path d="M52.905 52.3089C53.8007 50.4941 55.6272 49.5749 56.9942 50.2466C58.3612 50.9183 58.7501 52.9452 57.8427 54.76C56.9353 56.5748 55.1205 57.494 53.7535 56.8223C52.3865 56.1505 51.9977 54.1354 52.905 52.3089Z" fill="#64CF83"/>
<path opacity="0.1" d="M52.905 52.3089C53.8007 50.4941 55.6272 49.5749 56.9942 50.2466C58.3612 50.9183 58.7501 52.9452 57.8427 54.76C56.9353 56.5748 55.1205 57.494 53.7535 56.8223C52.3865 56.1505 51.9977 54.1354 52.905 52.3089Z" fill="black"/>
<path opacity="0.25" d="M55.1084 56.1512C54.201 56.4694 53.3054 55.1024 54.0242 53.3819C54.5899 52.0031 55.8155 51.025 56.6757 51.1664C56.9721 51.2265 57.2341 51.3983 57.4073 51.6461C57.5806 51.894 57.652 52.199 57.6067 52.498C57.4417 51.897 56.8289 51.626 56.0512 52.062C55.5569 52.3561 55.1419 52.7664 54.842 53.2572C54.5422 53.7479 54.3667 54.3045 54.3306 54.8785C54.3188 55.5973 54.6488 56.0923 55.1084 56.1512Z" fill="black"/>
<path d="M41.5211 33.6192C39.8124 33.525 38.4926 32.4408 38.5633 31.1328C38.634 29.8247 40.0717 28.8937 41.7686 28.988C43.4655 29.0823 44.7854 30.1664 44.7147 31.4627C44.644 32.759 43.2181 33.7135 41.5211 33.6192Z" fill="#64CF83"/>
<path opacity="0.1" d="M41.5211 33.6192C39.8124 33.525 38.4926 32.4408 38.5633 31.1328C38.634 29.8247 40.0717 28.8937 41.7686 28.988C43.4655 29.0823 44.7854 30.1664 44.7147 31.4627C44.644 32.759 43.2181 33.7135 41.5211 33.6192Z" fill="black"/>
<path opacity="0.25" d="M43.7492 30.6491C44.2912 31.2501 43.537 32.3932 41.9697 32.4049C40.7206 32.4049 39.6129 31.8039 39.3772 31.0969C39.3457 30.9723 39.3393 30.8426 39.3585 30.7155C39.3777 30.5884 39.4221 30.4664 39.489 30.3567C39.556 30.2469 39.6441 30.1516 39.7484 30.0764C39.8526 30.0011 39.9708 29.9475 40.096 29.9185C39.6954 30.2484 39.6836 30.8023 40.2846 31.2619C40.6737 31.5452 41.1258 31.7298 41.6021 31.7995C42.0784 31.8693 42.5645 31.8223 43.0185 31.6625C43.5842 31.4504 43.8552 31.0262 43.7492 30.6491Z" fill="black"/>
<path d="M34.1915 47.0068C35.582 48.4798 35.8295 50.5421 34.7218 51.5673C33.614 52.5926 31.5871 52.2862 30.1966 50.8131C28.806 49.3401 28.5586 47.2778 29.6545 46.2644C30.7505 45.2509 32.7891 45.5455 34.1915 47.0068Z" fill="#64CF83"/>
<path opacity="0.1" d="M34.1915 47.0068C35.582 48.4798 35.8295 50.5421 34.7218 51.5673C33.614 52.5926 31.5871 52.2862 30.1966 50.8131C28.806 49.3401 28.5586 47.2778 29.6545 46.2644C30.7505 45.2509 32.7891 45.5455 34.1915 47.0068Z" fill="black"/>
<path opacity="0.25" d="M29.8193 47.7605C29.8193 46.806 31.422 46.4289 32.8008 47.7605C33.8967 48.7622 34.3799 50.2352 33.9792 51.013C33.8201 51.2723 33.5669 51.46 33.2726 51.5368C32.9783 51.6137 32.6657 51.5738 32.4001 51.4254C33.0247 51.4254 33.4842 51.0012 33.3428 50.1174C33.2364 49.553 32.994 49.0231 32.6368 48.5734C32.2795 48.1237 31.8181 47.7679 31.2924 47.5366C30.6089 47.2067 30.0432 47.3599 29.8193 47.7605Z" fill="black"/>
<path d="M40.2483 24.8637C38.2332 24.6398 36.713 23.2375 36.9016 21.7291C37.0901 20.2207 38.8342 19.1601 40.8375 19.3722C42.8408 19.5843 44.3728 20.9985 44.196 22.5186C44.0193 24.0388 42.2634 25.0876 40.2483 24.8637Z" fill="#64CF83"/>
<path opacity="0.1" d="M40.2483 24.8637C38.2332 24.6398 36.713 23.2375 36.9016 21.7291C37.0901 20.2207 38.8342 19.1601 40.8375 19.3722C42.8408 19.5843 44.3728 20.9985 44.196 22.5186C44.0193 24.0388 42.2634 25.0876 40.2483 24.8637Z" fill="black"/>
<path opacity="0.25" d="M43.0881 21.47C43.7009 22.2124 42.7346 23.5322 40.8609 23.4497C39.376 23.379 38.0444 22.5659 37.8677 21.7174C37.819 21.4166 37.8888 21.1086 38.0624 20.8581C38.236 20.6076 38.4998 20.4341 38.7986 20.374C38.2919 20.7511 38.2447 21.411 38.9282 21.9885C39.3734 22.3504 39.9001 22.5986 40.4626 22.7115C41.0252 22.8244 41.6067 22.7987 42.1571 22.6366C42.8524 22.4009 43.2177 21.9296 43.0881 21.47Z" fill="black"/>
<path d="M44.6332 48.9393C46.3655 48.4915 48.0388 49.1985 48.3806 50.5066C48.7223 51.8146 47.5793 53.2288 45.8352 53.6648C44.0911 54.1008 42.4295 53.4173 42.0878 52.1092C41.746 50.8012 42.8891 49.3399 44.6332 48.9393Z" fill="#64CF83"/>
<path opacity="0.1" d="M44.6332 48.9393C46.3655 48.4915 48.0388 49.1985 48.3806 50.5066C48.7223 51.8146 47.5793 53.2288 45.8352 53.6648C44.0911 54.1008 42.4295 53.4173 42.0878 52.1092C41.746 50.8012 42.8891 49.3399 44.6332 48.9393Z" fill="black"/>
<path opacity="0.25" d="M43.324 52.5922C42.5934 52.1562 42.9823 50.7656 44.5024 50.2353C45.0004 50.0187 45.5505 49.9512 46.086 50.0412C46.6215 50.1311 47.1194 50.3746 47.5192 50.7421C47.6566 50.9765 47.6953 51.2559 47.6268 51.5188C47.5583 51.7818 47.3882 52.0068 47.1539 52.1444C47.4603 51.673 47.2953 51.1192 46.5529 50.8481C46.0727 50.6833 45.5593 50.6391 45.0579 50.7192C44.5565 50.7993 44.0825 51.0014 43.6775 51.3077C43.218 51.7319 43.1001 52.2387 43.324 52.5922Z" fill="black"/>
<path d="M55.0025 40.6895C54.319 37.9673 55.4385 35.3512 57.4889 34.7974C59.5394 34.2435 61.7549 36.0819 62.4266 38.8158C63.0983 41.5498 61.9788 44.1541 59.9283 44.708C57.8778 45.2618 55.6624 43.4588 55.0025 40.6895Z" fill="#64CF83"/>
<path opacity="0.1" d="M55.0025 40.6895C54.319 37.9673 55.4385 35.3512 57.4889 34.7974C59.5394 34.2435 61.7549 36.0819 62.4266 38.8158C63.0983 41.5498 61.9788 44.1541 59.9283 44.708C57.8778 45.2618 55.6624 43.4588 55.0025 40.6895Z" fill="black"/>
<path opacity="0.25" d="M60.7532 42.8227C60.0697 44.0011 57.9132 43.3294 57.1236 40.8547C56.499 38.8867 56.9351 36.7773 57.9485 36.141C58.1306 36.0339 58.3323 35.9641 58.5417 35.9358C58.751 35.9074 58.964 35.9211 59.168 35.9759C59.3721 36.0308 59.5631 36.1257 59.7301 36.2552C59.897 36.3847 60.0365 36.5462 60.1404 36.7302C59.4215 36.247 58.5377 36.4945 58.1017 37.6611C57.8427 38.4134 57.7706 39.2174 57.8917 40.0037C58.0129 40.7901 58.3236 41.5351 58.797 42.1745C59.4216 42.9405 60.2111 43.1644 60.7532 42.8227Z" fill="black"/>
<path d="M23.3614 48.6913C23.4306 49.084 23.389 49.4882 23.2412 49.8585C23.0934 50.2289 22.8454 50.5507 22.5248 50.7878C22.2043 51.0249 21.824 51.168 21.4266 51.201C21.0293 51.234 20.6306 51.1556 20.2753 50.9745C19.9201 50.7935 19.6224 50.517 19.4155 50.1761C19.2087 49.8352 19.1011 49.4434 19.1046 49.0447C19.1081 48.6459 19.2227 48.2561 19.4355 47.9189C19.6483 47.5818 19.9509 47.3106 20.3093 47.1358C20.9204 46.9514 21.5792 47.0102 22.148 47.3001C22.7168 47.59 23.1515 48.0885 23.3614 48.6913Z" fill="#64CF83"/>
<path opacity="0.1" d="M23.3614 48.6913C23.4306 49.084 23.389 49.4882 23.2412 49.8585C23.0934 50.2289 22.8454 50.5507 22.5248 50.7878C22.2043 51.0249 21.824 51.168 21.4266 51.201C21.0293 51.234 20.6306 51.1556 20.2753 50.9745C19.9201 50.7935 19.6224 50.517 19.4155 50.1761C19.2087 49.8352 19.1011 49.4434 19.1046 49.0447C19.1081 48.6459 19.2227 48.2561 19.4355 47.9189C19.6483 47.5818 19.9509 47.3106 20.3093 47.1358C20.9204 46.9514 21.5792 47.0102 22.148 47.3001C22.7168 47.59 23.1515 48.0885 23.3614 48.6913Z" fill="black"/>
<path opacity="0.25" d="M20.0859 48.2439C20.3216 47.5604 21.5236 47.6547 22.2189 48.8684C22.4841 49.2428 22.6342 49.6863 22.651 50.1448C22.6677 50.6032 22.5503 51.0565 22.3132 51.4492C22.1536 51.5992 21.9429 51.6827 21.724 51.6827C21.505 51.6827 21.2943 51.5992 21.1347 51.4492C21.5708 51.626 21.995 51.4492 22.1011 50.7304C22.162 50.296 22.1142 49.8534 21.962 49.4421C21.8098 49.0307 21.558 48.6636 21.229 48.3735C20.8284 48.0317 20.3334 47.9964 20.0859 48.2439Z" fill="black"/>
<path d="M33.4022 56.9995C35.2642 57.8598 36.2658 59.6981 35.6177 61.1123C34.9696 62.5264 32.9191 62.9624 31.0571 62.1021C29.1952 61.2419 28.1818 59.4035 28.8299 58.0012C29.4781 56.5989 31.5285 56.1393 33.4022 56.9995Z" fill="#64CF83"/>
<path opacity="0.1" d="M33.4022 56.9995C35.2642 57.8598 36.2658 59.6981 35.6177 61.1123C34.9696 62.5264 32.9191 62.9624 31.0571 62.1021C29.1952 61.2419 28.1818 59.4035 28.8299 58.0012C29.4781 56.5989 31.5285 56.1393 33.4022 56.9995Z" fill="black"/>
<path opacity="0.25" d="M29.5599 59.3561C29.2064 58.4487 30.5733 57.4942 32.3528 58.1777C33.7551 58.7198 34.7803 59.9218 34.7096 60.8056C34.663 61.1128 34.497 61.3892 34.2476 61.5746C33.9982 61.76 33.6856 61.8394 33.378 61.7955C33.979 61.6069 34.2383 60.9824 33.7787 60.2046C33.4627 59.7133 33.0334 59.3049 32.5269 59.0137C32.0205 58.7225 31.4516 58.5571 30.868 58.5312C30.0902 58.5312 29.607 58.8847 29.5599 59.3561Z" fill="black"/>
<path d="M44.5968 59.7332C44.9446 59.7061 45.2932 59.7766 45.6031 59.9368C45.9131 60.0971 46.1721 60.3407 46.3511 60.6402C46.53 60.9397 46.6218 61.2833 46.616 61.6322C46.6103 61.981 46.5072 62.3214 46.3185 62.6148C46.1297 62.9083 45.8628 63.1432 45.5477 63.2932C45.2326 63.4431 44.882 63.5021 44.5352 63.4634C44.1884 63.4248 43.8593 63.2901 43.5849 63.0746C43.3106 62.859 43.1019 62.5711 42.9823 62.2433C42.8789 61.6977 42.9886 61.1333 43.289 60.6663C43.5894 60.1993 44.0574 59.8653 44.5968 59.7332Z" fill="#64CF83"/>
<path opacity="0.1" d="M44.5968 59.7332C44.9446 59.7061 45.2932 59.7766 45.6031 59.9368C45.9131 60.0971 46.1721 60.3407 46.3511 60.6402C46.53 60.9397 46.6218 61.2833 46.616 61.6322C46.6103 61.981 46.5072 62.3214 46.3185 62.6148C46.1297 62.9083 45.8628 63.1432 45.5477 63.2932C45.2326 63.4431 44.882 63.5021 44.5352 63.4634C44.1884 63.4248 43.8593 63.2901 43.5849 63.0746C43.3106 62.859 43.1019 62.5711 42.9823 62.2433C42.8789 61.6977 42.9886 61.1333 43.289 60.6663C43.5894 60.1993 44.0574 59.8653 44.5968 59.7332Z" fill="black"/>
<path opacity="0.25" d="M43.9256 62.5383C43.3481 62.279 43.5367 61.2302 44.6562 60.7353C45.0059 60.5421 45.4035 60.4527 45.8022 60.4778C46.2009 60.5028 46.5842 60.6412 46.907 60.8767C46.968 60.9563 47.0122 61.0475 47.037 61.1447C47.0618 61.2419 47.0666 61.3431 47.0512 61.4422C47.0358 61.5414 47.0004 61.6363 46.9473 61.7214C46.8941 61.8065 46.8243 61.8799 46.742 61.9373C46.9306 61.572 46.742 61.1713 46.1999 61.0299C45.8351 60.9514 45.4568 60.9607 45.0962 61.057C44.7356 61.1533 44.4031 61.3338 44.1259 61.5838C43.7959 61.9019 43.737 62.3026 43.9256 62.5383Z" fill="black"/>
<path d="M51.55 27.421C51.3404 27.1428 51.2125 26.8117 51.1807 26.4648C51.1489 26.118 51.2143 25.7691 51.3698 25.4574C51.5252 25.1457 51.7645 24.8835 52.0606 24.7003C52.3568 24.517 52.6982 24.4199 53.0466 24.4199C53.3949 24.4199 53.7362 24.517 54.0324 24.7003C54.3286 24.8835 54.5679 25.1457 54.7233 25.4574C54.8788 25.7691 54.9442 26.118 54.9124 26.4648C54.8806 26.8117 54.7527 27.1428 54.5431 27.421C54.1412 27.8084 53.6048 28.0248 53.0466 28.0248C52.4883 28.0248 51.9519 27.8084 51.55 27.421Z" fill="#64CF83"/>
<path opacity="0.1" d="M51.55 27.421C51.3404 27.1428 51.2125 26.8117 51.1807 26.4648C51.1489 26.118 51.2143 25.7691 51.3698 25.4574C51.5252 25.1457 51.7645 24.8835 52.0606 24.7003C52.3568 24.517 52.6982 24.4199 53.0466 24.4199C53.3949 24.4199 53.7362 24.517 54.0324 24.7003C54.3286 24.8835 54.5679 25.1457 54.7233 25.4574C54.8788 25.7691 54.9442 26.118 54.9124 26.4648C54.8806 26.8117 54.7527 27.1428 54.5431 27.421C54.1412 27.8084 53.6048 28.0248 53.0466 28.0248C52.4883 28.0248 51.9519 27.8084 51.55 27.421Z" fill="black"/>
<path opacity="0.25" d="M54.2598 26.4545C54.3541 27.0673 53.3878 27.4798 52.3508 26.8198C51.5376 26.3013 51.0663 25.4057 51.243 24.8636C51.312 24.6763 51.4525 24.524 51.6336 24.44C51.8148 24.3561 52.0218 24.3474 52.2093 24.4158C51.8087 24.4158 51.5612 24.8165 51.7498 25.3704C51.885 25.7179 52.1008 26.0283 52.3795 26.2762C52.6581 26.5241 52.9915 26.7023 53.3524 26.7963C53.8238 26.8905 54.1655 26.7373 54.2598 26.4545Z" fill="black"/>
<path d="M33.1074 36.4008C32.7421 37.6735 31.6579 38.4749 30.7505 38.192C30.2242 38.2003 29.7088 38.0422 29.2777 37.7402C28.8466 37.4382 28.5219 37.0077 28.35 36.5103C28.178 36.0128 28.1676 35.4737 28.3201 34.97C28.4727 34.4662 28.7804 34.0235 29.1995 33.705C29.6185 33.3866 30.1275 33.2086 30.6537 33.1965C31.1799 33.1844 31.6965 33.3388 32.1298 33.6376C32.563 33.9365 32.8908 34.3646 33.0664 34.8608C33.2419 35.357 33.2563 35.896 33.1074 36.4008Z" fill="#64CF83"/>
<path opacity="0.1" d="M33.1074 36.4008C32.7421 37.6735 31.6579 38.4749 30.7505 38.192C30.2242 38.2003 29.7088 38.0422 29.2777 37.7402C28.8466 37.4382 28.5219 37.0077 28.35 36.5103C28.178 36.0128 28.1676 35.4737 28.3201 34.97C28.4727 34.4662 28.7804 34.0235 29.1995 33.705C29.6185 33.3866 30.1275 33.2086 30.6537 33.1965C31.1799 33.1844 31.6965 33.3388 32.1298 33.6376C32.563 33.9365 32.8908 34.3646 33.0664 34.8608C33.2419 35.357 33.2563 35.896 33.1074 36.4008Z" fill="black"/>
<path opacity="0.25" d="M31.2685 34.1846C31.8106 33.8783 32.5412 34.656 32.2702 35.8462C32.0581 36.789 31.3863 37.5432 30.8207 37.5667C30.7212 37.5683 30.6224 37.5499 30.5302 37.5126C30.438 37.4752 30.3542 37.4197 30.2839 37.3494C30.2135 37.279 30.158 37.1953 30.1207 37.103C30.0833 37.0108 30.0649 36.912 30.0665 36.8125C30.2433 37.1779 30.6557 37.2839 31.1153 36.9186C31.3966 36.6714 31.6149 36.3608 31.7522 36.0124C31.8895 35.664 31.9419 35.2879 31.9049 34.9153C31.8341 34.4439 31.5749 34.1729 31.2685 34.1846Z" fill="black"/>
<path d="M48.568 39.983C48.3456 39.4707 48.3306 38.8921 48.5263 38.369C48.7219 37.8459 49.1128 37.4191 49.6168 37.1784C50.5713 36.8955 51.6437 37.6969 51.9736 38.9696C52.1301 39.2146 52.2275 39.4927 52.2579 39.7818C52.2884 40.071 52.2512 40.3632 52.1492 40.6355C52.0472 40.9078 51.8832 41.1525 51.6703 41.3505C51.4573 41.5484 51.2012 41.6941 50.9222 41.776C50.6433 41.8579 50.3491 41.8737 50.0629 41.8223C49.7768 41.7708 49.5065 41.6535 49.2736 41.4795C49.0406 41.3056 48.8513 41.0798 48.7207 40.8201C48.59 40.5603 48.5216 40.2738 48.5208 39.983H48.568Z" fill="#64CF83"/>
<path opacity="0.1" d="M48.568 39.983C48.3456 39.4707 48.3306 38.8921 48.5263 38.369C48.7219 37.8459 49.1128 37.4191 49.6168 37.1784C50.5713 36.8955 51.6437 37.6969 51.9736 38.9696C52.1301 39.2146 52.2275 39.4927 52.2579 39.7818C52.2884 40.071 52.2512 40.3632 52.1492 40.6355C52.0472 40.9078 51.8832 41.1525 51.6703 41.3505C51.4573 41.5484 51.2012 41.6941 50.9222 41.776C50.6433 41.8579 50.3491 41.8737 50.0629 41.8223C49.7768 41.7708 49.5065 41.6535 49.2736 41.4795C49.0406 41.3056 48.8513 41.0798 48.7207 40.8201C48.59 40.5603 48.5216 40.2738 48.5208 39.983H48.568Z" fill="black"/>
<path opacity="0.25" d="M51.3249 40.8435C51.0185 41.3974 49.9933 41.1382 49.5691 39.9951C49.3966 39.6333 49.3326 39.2293 49.3849 38.832C49.4372 38.4346 49.6035 38.0609 49.8637 37.7561C49.9469 37.7022 50.04 37.6655 50.1376 37.6481C50.2352 37.6308 50.3352 37.6332 50.4319 37.6552C50.5285 37.6771 50.6198 37.7182 50.7003 37.7761C50.7808 37.8339 50.849 37.9072 50.9007 37.9917C50.5589 37.7796 50.1465 37.9093 49.9697 38.4749C49.8683 38.8323 49.8528 39.2086 49.9244 39.5732C49.9961 39.9377 50.153 40.2801 50.3822 40.5725C50.7004 40.9378 51.0775 41.0203 51.3249 40.8435Z" fill="black"/>
<path d="M29.6782 25.5465C29.3475 25.6542 28.9933 25.6676 28.6553 25.5854C28.3173 25.5032 28.0089 25.3285 27.7646 25.0809C27.5203 24.8333 27.3497 24.5226 27.272 24.1836C27.1943 23.8445 27.2124 23.4906 27.3245 23.1613C27.4365 22.832 27.638 22.5404 27.9064 22.3191C28.1748 22.0978 28.4994 21.9557 28.844 21.9084C29.1887 21.8612 29.5396 21.9109 29.8576 22.0518C30.1756 22.1928 30.4481 22.4195 30.6445 22.7065C30.8806 23.2132 30.9118 23.7914 30.7318 24.3206C30.5517 24.8498 30.1743 25.289 29.6782 25.5465Z" fill="#64CF83"/>
<path opacity="0.1" d="M29.6782 25.5465C29.3475 25.6542 28.9933 25.6676 28.6553 25.5854C28.3173 25.5032 28.0089 25.3285 27.7646 25.0809C27.5203 24.8333 27.3497 24.5226 27.272 24.1836C27.1943 23.8445 27.2124 23.4906 27.3245 23.1613C27.4365 22.832 27.638 22.5404 27.9064 22.3191C28.1748 22.0978 28.4994 21.9557 28.844 21.9084C29.1887 21.8612 29.5396 21.9109 29.8576 22.0518C30.1756 22.1928 30.4481 22.4195 30.6445 22.7065C30.8806 23.2132 30.9118 23.7914 30.7318 24.3206C30.5517 24.8498 30.1743 25.289 29.6782 25.5465Z" fill="black"/>
<path opacity="0.25" d="M29.6553 22.6602C30.2681 22.7662 30.3505 23.8386 29.3842 24.581C29.094 24.856 28.7305 25.0412 28.3374 25.1144C27.9444 25.1875 27.5385 25.1456 27.1688 24.9935C27.0142 24.8668 26.9162 24.684 26.8963 24.4851C26.8764 24.2862 26.9363 24.0876 27.0627 23.9329C26.9684 24.3335 27.2277 24.6753 27.8051 24.6753C28.1802 24.6632 28.547 24.5617 28.8749 24.3793C29.2029 24.1969 29.4826 23.9388 29.6906 23.6265C29.9263 23.2258 29.891 22.8369 29.6553 22.6602Z" fill="black"/>
<path d="M41.6978 45.1683C40.9862 45.3987 40.2211 45.4058 39.5054 45.1886C38.7896 44.9715 38.1575 44.5406 37.6937 43.9538C37.23 43.3669 36.9569 42.6523 36.9112 41.9057C36.8654 41.1592 37.0492 40.4165 37.4378 39.7774C37.8264 39.1383 38.4012 38.6334 39.0851 38.3306C39.769 38.0277 40.5292 37.9413 41.2636 38.083C41.998 38.2247 42.6715 38.5877 43.1936 39.1233C43.7156 39.6589 44.0614 40.3414 44.1843 41.0792C44.3909 41.9508 44.2458 42.8688 43.7804 43.6341C43.315 44.3995 42.5668 44.9507 41.6978 45.1683Z" fill="#64CF83"/>
<path opacity="0.1" d="M41.6978 45.1683C40.9862 45.3987 40.2211 45.4058 39.5054 45.1886C38.7896 44.9715 38.1575 44.5406 37.6937 43.9538C37.23 43.3669 36.9569 42.6523 36.9112 41.9057C36.8654 41.1592 37.0492 40.4165 37.4378 39.7774C37.8264 39.1383 38.4012 38.6334 39.0851 38.3306C39.769 38.0277 40.5292 37.9413 41.2636 38.083C41.998 38.2247 42.6715 38.5877 43.1936 39.1233C43.7156 39.6589 44.0614 40.3414 44.1843 41.0792C44.3909 41.9508 44.2458 42.8688 43.7804 43.6341C43.315 44.3995 42.5668 44.9507 41.6978 45.1683Z" fill="black"/>
<path opacity="0.25" d="M41.6746 39.1228C40.6141 38.7104 39.2353 39.5117 38.976 41.2087C38.7168 42.9056 40.4608 44.9207 41.8868 44.2255C41.3579 43.9855 40.9013 43.6112 40.5622 43.1398C40.2231 42.6683 40.0134 42.1163 39.9541 41.5386C39.9053 41.2667 39.9112 40.9878 39.9717 40.7182C40.0321 40.4486 40.1458 40.1938 40.3061 39.9687C40.4664 39.7437 40.67 39.5529 40.905 39.4077C41.14 39.2624 41.4017 39.1656 41.6746 39.1228Z" fill="black"/>
</svg>
